<?xml version="1.0" standalone="no"?>
<!DOCTYPE svg PUBLIC "-//W3C//DTD SVG 20010904//EN"
 "http://www.w3.org/TR/2001/REC-SVG-20010904/DTD/svg10.dtd">
<svg version="1.0" xmlns="http://www.w3.org/2000/svg"
 width="2000.000000pt" height="2000.000000pt" viewBox="0 0 2000.000000 2000.000000"
 preserveAspectRatio="xMidYMid meet">
<metadata>
Created by potrace 1.14, written by Peter Selinger 2001-2017
</metadata>
<g transform="translate(0.000000,2000.000000) scale(0.100000,-0.100000)"
fill="#000000" stroke="none">
<path d="M9605 17281 c-105 -30 -194 -89 -254 -168 -18 -23 -362 -701 -765
-1505 -402 -805 -739 -1475 -749 -1490 -10 -14 -35 -34 -55 -44 -35 -17 -134
-18 -1997 -20 -1397 -1 -1973 -4 -2005 -12 -83 -21 -168 -69 -231 -134 -60
-61 -76 -93 -1795 -3530 -954 -1907 -1732 -3468 -1729 -3468 3 0 0 -10 -6 -22
-18 -34 -20 -198 -3 -255 14 -45 50 -127 66 -148 74 -99 166 -166 269 -195 73
-20 96 -20 1784 -20 1646 0 1712 -1 1751 -19 55 -25 85 -70 90 -132 3 -50 -14
-84 -680 -1418 -703 -1407 -696 -1390 -701 -1511 0 -19 5 -64 12 -100 38 -183
173 -326 353 -374 48 -13 667 -14 4950 -13 4050 2 4901 4 4930 15 58 23 83 35
130 66 64 43 77 55 115 106 56 76 1533 3040 1549 3109 14 59 14 140 1 216 -20
116 -143 273 -255 326 -113 54 -48 52 -1715 54 -1105 1 -1557 4 -1575 12 -14
6 -35 20 -47 32 -12 11 -277 531 -588 1153 -312 623 -572 1139 -578 1147 -7 8
-32 23 -56 34 -57 25 -119 17 -165 -23 -26 -23 -161 -285 -601 -1166 -538
-1076 -570 -1137 -608 -1162 l-41 -27 -1718 -1 c-1331 0 -1727 3 -1754 12 -60
20 -99 76 -103 144 -2 42 114 278 1633 3315 1073 2146 1645 3280 1664 3298 16
15 42 31 58 36 16 4 727 7 1579 7 1476 -1 1552 -2 1587 -19 20 -10 47 -35 60
-55 13 -20 273 -535 577 -1144 434 -870 560 -1114 586 -1137 60 -52 154 -50
214 6 11 10 274 528 586 1151 312 623 576 1142 588 1153 12 12 33 26 47 32 18
8 602 11 2055 12 1117 1 2048 5 2070 9 58 10 123 35 180 71 118 75 83 12 903
1652 821 1641 792 1578 779 1713 -8 77 -24 135 -50 184 -61 111 -150 191 -267
238 l-55 23 -4980 2 c-4712 2 -4983 1 -5040 -16z"/>
</g>
</svg>
