<svg width="120" height="120" viewBox="0 0 120 120" fill="none" xmlns="http://www.w3.org/2000/svg">
<rect x="0.5" y="0.5" width="119" height="119" rx="31.5" fill="#FAFAFA" stroke="#0077FF"/>
<g clip-path="url(#clip0_47_1384)">
<path d="M82.0601 76.8671C86.6731 76.8671 90.4126 73.1276 90.4126 68.5146C90.4126 63.9016 86.6731 60.1621 82.0601 60.1621C77.4472 60.1621 73.7076 63.9016 73.7076 68.5146C73.7076 73.1276 77.4472 76.8671 82.0601 76.8671Z" stroke="#0077FF" stroke-miterlimit="10"/>
<path d="M93.8349 88.6661H78.4041C78.5306 88.0961 78.5255 87.484 78.3618 86.8665C77.3064 82.9402 75.0107 79.5257 71.9182 77.0612C73.1689 75.9688 74.6043 75.0717 76.1612 74.4279C77.6705 75.9319 79.755 76.866 82.0612 76.866C84.3621 76.866 86.452 75.9319 87.9613 74.4279C92.3415 76.2433 95.7084 80.0165 96.9539 84.6606C97.4974 86.6871 95.9301 88.6661 93.8349 88.6661H93.8349Z" stroke="#0077FF" stroke-miterlimit="10"/>
<path d="M37.2736 76.8671C41.8865 76.8671 45.6261 73.1276 45.6261 68.5146C45.6261 63.9016 41.8865 60.1621 37.2736 60.1621C32.6606 60.1621 28.9211 63.9016 28.9211 68.5146C28.9211 73.1276 32.6606 76.8671 37.2736 76.8671Z" stroke="#0077FF" stroke-miterlimit="10"/>
<path d="M47.9854 77.5784C45.2096 79.9901 43.1462 83.2041 42.1645 86.8665C42.001 87.484 41.9956 88.0961 42.1224 88.6661H25.4988C23.4036 88.6661 21.8362 86.6871 22.3798 84.6606C23.6253 80.0165 26.9922 76.2433 31.3724 74.4279C32.8816 75.9319 34.9716 76.866 37.2724 76.866C38.5708 76.866 39.795 76.5705 40.8927 76.0427C41.1355 75.9266 41.3729 75.7999 41.5998 75.6627C42.1751 75.3144 42.7028 74.8975 43.1725 74.4279C44.9774 75.1719 46.6027 76.2485 47.9854 77.5784H47.9854Z" stroke="#0077FF" stroke-miterlimit="10"/>
<path d="M67.4276 32.6547H39.4085C38.1764 32.6547 37.1776 33.6535 37.1776 34.8856V49.8281C37.1776 51.0602 38.1764 52.059 39.4085 52.059H40.6077V55.9565C40.6077 56.5073 41.2736 56.7832 41.6631 56.3937L45.9978 52.059H67.4276C68.6597 52.059 69.6585 51.0602 69.6585 49.8281V34.8856C69.6585 33.6535 68.6597 32.6547 67.4276 32.6547H67.4276Z" stroke="#0077FF" stroke-miterlimit="10"/>
<path d="M60.2626 77.3948C65.8676 77.3948 70.4113 72.8511 70.4113 67.2461C70.4113 61.6411 65.8676 57.0974 60.2626 57.0974C54.6576 57.0974 50.1139 61.6411 50.1139 67.2461C50.1139 72.8511 54.6576 77.3948 60.2626 77.3948Z" stroke="#0077FF" stroke-miterlimit="10"/>
<path d="M78.361 86.8649C76.8478 81.2204 72.7625 76.6308 67.4401 74.421C65.6034 76.2583 63.0658 77.3948 60.2626 77.3948C57.4594 77.3948 54.9219 76.2583 53.0852 74.421C47.7628 76.6308 43.6774 81.2204 42.1641 86.8649C41.505 89.3239 43.4126 91.7289 45.9584 91.7289H74.5669C77.1126 91.7289 79.0202 89.3239 78.361 86.8649Z" stroke="#0077FF" stroke-miterlimit="10"/>
<path d="M78.0789 28.2711H50.0597C48.8277 28.2711 47.8289 29.2699 47.8289 30.502V32.6546H67.4277C68.6598 32.6546 69.6585 33.6534 69.6585 34.8855V47.6755H71.4896L75.8243 52.0101C76.2137 52.3996 76.8796 52.1238 76.8796 51.573V47.6755H78.0789C79.311 47.6755 80.3097 46.6766 80.3097 45.4445V30.502C80.3097 29.2699 79.311 28.2711 78.0789 28.2711V28.2711Z" stroke="#0077FF" stroke-miterlimit="10"/>
</g>
<defs>
<clipPath id="clip0_47_1384">
<rect width="75.3336" height="64" fill="white" transform="translate(22 28)"/>
</clipPath>
</defs>
</svg>
