<svg width="410" height="266" viewBox="0 0 410 266" fill="none" xmlns="http://www.w3.org/2000/svg">
<path d="M207.448 190.784H21.4601C28.5945 186.65 34.4766 180.553 38.3473 173.237C41.573 167.103 43.4325 160.092 43.4325 152.642H185.475C185.475 160.092 187.335 167.103 190.56 173.237C194.431 180.553 200.313 186.65 207.448 190.784V190.784Z" stroke="#0077FF" stroke-miterlimit="10"/>
<path d="M38.3474 173.237C34.4766 180.553 28.5945 186.65 21.4601 190.784H18.4242C8.7662 190.784 0.94873 182.935 0.94873 173.237" stroke="#0077FF" stroke-miterlimit="10"/>
<path d="M227.959 173.237C227.959 182.935 220.142 190.784 210.484 190.784H207.448C200.313 186.65 194.431 180.553 190.56 173.237" stroke="#0077FF" stroke-miterlimit="10"/>
<path d="M114.454 87.5045H159.556C159.556 97.8686 165.173 106.899 173.502 111.738H175.438C181.566 111.738 186.538 106.747 186.538 100.593" stroke="#0077FF" stroke-miterlimit="10"/>
<path d="M114.454 87.5045H69.3517C69.3517 97.8686 63.7352 106.899 55.4054 111.738H53.4701C47.3413 111.738 42.37 106.747 42.37 100.593" stroke="#0077FF" stroke-miterlimit="10"/>
<path d="M173.521 111.738H55.3865" stroke="#0077FF" stroke-miterlimit="10"/>
<path d="M171.206 111.738H57.7013V152.642H171.206V111.738Z" stroke="#0077FF" stroke-miterlimit="10"/>
<path d="M69.3517 87.5045V81.5413" stroke="#0077FF" stroke-miterlimit="10"/>
<path d="M159.556 87.5045V81.5413" stroke="#0077FF" stroke-miterlimit="10"/>
<path d="M192.477 190.784H36.4309V247.367H192.477V190.784Z" stroke="#0077FF" stroke-miterlimit="10"/>
<path d="M209.914 247.386H18.9934" stroke="#0077FF" stroke-miterlimit="10"/>
<path d="M114.454 202.977C106.352 202.977 99.7866 209.569 99.7866 217.704V247.387H129.102V217.704C129.102 209.569 122.537 202.977 114.435 202.977H114.454Z" stroke="#0077FF" stroke-miterlimit="10"/>
<path d="M81.1727 213.246H50.6049V231.288H81.1727V213.246Z" stroke="#0077FF" stroke-miterlimit="10"/>
<path d="M178.303 213.246H147.735V231.288H178.303V213.246Z" stroke="#0077FF" stroke-miterlimit="10"/>
<path d="M94.322 123.855H71.4009V140.544H94.322V123.855Z" stroke="#0077FF" stroke-miterlimit="10"/>
<path d="M153.408 123.855H130.487V140.544H153.408V123.855Z" stroke="#0077FF" stroke-miterlimit="10"/>
<path d="M221.754 0.952576H373.493C378.92 0.952576 383.322 5.37257 383.322 10.8214V100.307C383.322 105.756 378.92 110.176 373.493 110.176H221.754C216.328 110.176 211.926 105.756 211.926 100.307V10.8214C211.926 5.37257 216.328 0.952576 221.754 0.952576Z" stroke="#0077FF" stroke-miterlimit="10"/>
<path d="M318.239 110.195H277.027V140.525H318.239V110.195Z" stroke="#0077FF" stroke-miterlimit="10"/>
<path d="M336.967 140.525H258.299" stroke="#0077FF" stroke-miterlimit="10"/>
<path d="M233.651 23.3574H306.039" stroke="#0077FF" stroke-miterlimit="10"/>
<path d="M233.651 39.037H257.901" stroke="#0077FF" stroke-miterlimit="10"/>
<path d="M269.475 39.037H325.81" stroke="#0077FF" stroke-miterlimit="10"/>
<path d="M233.651 57.4981H306.039" stroke="#0077FF" stroke-miterlimit="10"/>
<path d="M233.651 87.7903H313.686" stroke="#0077FF" stroke-miterlimit="10"/>
<path d="M325.81 73.1777H301.561" stroke="#0077FF" stroke-miterlimit="10"/>
<path d="M289.987 73.1777H233.651" stroke="#0077FF" stroke-miterlimit="10"/>
<path d="M261.013 253.655H409.051C409.051 259.942 403.966 265.047 397.705 265.047H272.378C266.117 265.047 261.032 259.942 261.032 253.655H261.013Z" stroke="#0077FF" stroke-miterlimit="10"/>
<path d="M390.988 173.104H279.095C275.547 173.104 272.663 176 272.663 179.562V253.635H397.439V179.562C397.439 176 394.555 173.104 391.007 173.104H390.988Z" stroke="#0077FF" stroke-miterlimit="10"/>
<path d="M318.657 230.945L302.225 213.379L318.657 195.814" stroke="#0077FF" stroke-miterlimit="10"/>
<path d="M351.407 195.814L367.839 213.379L351.407 230.945" stroke="#0077FF" stroke-miterlimit="10"/>
<path d="M327.29 238.489L340.497 188.269" stroke="#0077FF" stroke-miterlimit="10"/>
</svg>
