<svg width="120" height="120" viewBox="0 0 120 120" fill="none" xmlns="http://www.w3.org/2000/svg">
<rect x="0.5" y="0.5" width="119" height="119" rx="31.5" fill="#FAFAFA" stroke="#0077FF"/>
<g clip-path="url(#clip0_47_1363)">
<path d="M77.0354 39.2203H28.3533C25.5519 39.2203 23.2808 41.4959 23.2808 44.3029V78.3454C23.2808 81.1524 25.5519 83.4279 28.3533 83.4279H31.0799V92.3073C31.0799 93.5621 32.5941 94.1906 33.4797 93.3032L43.3355 83.4279H77.0355C79.8369 83.4279 82.1079 81.1524 82.1079 78.3454V44.3029C82.1079 41.4959 79.8369 39.2203 77.0354 39.2203V39.2203Z" stroke="#0077FF" stroke-miterlimit="10"/>
<path d="M92.0653 30.2814H43.3831C40.5817 30.2814 38.3107 32.5569 38.3107 35.3639V39.2203H77.0354C79.8369 39.2203 82.1079 41.4959 82.1079 44.3029V78.3454C82.1079 78.7108 82.0676 79.0665 81.9945 79.4101L86.9389 84.3643C87.8244 85.2516 89.3387 84.6232 89.3387 83.3683V74.4889H92.0653C94.8667 74.4889 97.1378 72.2134 97.1378 69.4064V35.3639C97.1378 32.5569 94.8667 30.2814 92.0653 30.2814Z" stroke="#0077FF" stroke-miterlimit="10"/>
<path d="M32.1657 49.9719H73.223" stroke="#0077FF" stroke-miterlimit="10"/>
<path d="M32.1657 57.5305H73.223" stroke="#0077FF" stroke-miterlimit="10"/>
<path d="M32.1657 65.0891H73.223" stroke="#0077FF" stroke-miterlimit="10"/>
<path d="M32.1657 72.6477H73.223" stroke="#0077FF" stroke-miterlimit="10"/>
</g>
<defs>
<clipPath id="clip0_47_1363">
<rect width="74.4186" height="64" fill="white" transform="translate(23 30)"/>
</clipPath>
</defs>
</svg>
