<svg width="120" height="120" viewBox="0 0 120 120" fill="none" xmlns="http://www.w3.org/2000/svg">
<rect x="0.5" y="0.5" width="119" height="119" rx="31.5" fill="#FAFAFA" stroke="#0077FF"/>
<g clip-path="url(#clip0_47_1372)">
<path d="M51.3932 31.8981L28.1553 55.1359C25.6482 57.6431 25.6483 61.7081 28.1554 64.2152C30.6626 66.7224 34.7274 66.7223 37.2346 64.2152L60.4724 40.9773L51.3932 31.8981Z" stroke="#0077FF" stroke-miterlimit="10"/>
<path d="M65.1337 36.3517L56.0188 27.2367C54.7365 25.9545 52.6575 25.9544 51.3753 27.2367C50.093 28.5189 50.0931 30.5979 51.3753 31.8802L60.4903 40.9951C61.7726 42.2774 63.8515 42.2774 65.1338 40.9952C66.416 39.7129 66.416 37.634 65.1337 36.3517V36.3517Z" stroke="#0077FF" stroke-miterlimit="10"/>
<path d="M79.2416 47.2301H68.6345C67.1423 47.2301 65.9327 48.4397 65.9327 49.9319C65.9327 51.424 67.1423 52.6337 68.6345 52.6337H79.2416C80.7337 52.6337 81.9434 51.424 81.9434 49.9319C81.9434 48.4397 80.7337 47.2301 79.2416 47.2301Z" stroke="#0077FF" stroke-miterlimit="10"/>
<path d="M93.5283 82.1549L80.8573 64.313C79.9844 63.0838 79.5155 61.6136 79.5155 60.106V52.6337H68.3604V60.1059C68.3604 61.6135 67.8914 63.0838 67.0185 64.3129L54.3476 82.155C52.0933 85.3294 54.363 89.725 58.2564 89.725H89.6196C93.5131 89.725 95.7827 85.3293 93.5283 82.1549V82.1549Z" stroke="#0077FF" stroke-miterlimit="10"/>
<path d="M78.2868 43.8647C80.0273 43.8647 81.4383 42.4538 81.4383 40.7133C81.4383 38.9727 80.0273 37.5618 78.2868 37.5618C76.5463 37.5618 75.1353 38.9727 75.1353 40.7133C75.1353 42.4538 76.5463 43.8647 78.2868 43.8647Z" stroke="#0077FF" stroke-miterlimit="10"/>
<path d="M71.4631 34.6757C72.4541 34.6757 73.2574 33.8723 73.2574 32.8813C73.2574 31.8904 72.4541 31.087 71.4631 31.087C70.4721 31.087 69.6688 31.8904 69.6688 32.8813C69.6688 33.8723 70.4721 34.6757 71.4631 34.6757Z" stroke="#0077FF" stroke-miterlimit="10"/>
<path d="M78.9761 30.1929C79.8088 30.1929 80.4838 29.5179 80.4838 28.6852C80.4838 27.8525 79.8088 27.1775 78.9761 27.1775C78.1434 27.1775 77.4684 27.8525 77.4684 28.6852C77.4684 29.5179 78.1434 30.1929 78.9761 30.1929Z" stroke="#0077FF" stroke-miterlimit="10"/>
</g>
<defs>
<clipPath id="clip0_47_1372">
<rect width="68.6972" height="64" fill="white" transform="translate(26 26)"/>
</clipPath>
</defs>
</svg>
