<?xml version="1.0" encoding="UTF-8"?>
<svg id="Layer_1" data-name="Layer 1" xmlns="http://www.w3.org/2000/svg" viewBox="0 0 2000 553.1869">
  <defs>
    <style>
      .cls-1 {
        fill: #07f;
      }
    </style>
  </defs>
  <g>
    <g>
      <path class="cls-1" d="M1046.92427,244.75231h-43.70556l-98.96143-149.5358V244.75231h-43.70556V26.53718h43.70556l98.96143,149.84847V26.53718h43.70556V244.75231Z"/>
      <path class="cls-1" d="M1092.96624,43.8619c-5.10275-4.88706-7.64905-10.97271-7.64905-18.26276,0-7.27847,2.54631-13.36992,7.64905-18.26276,5.09696-4.88706,11.49674-7.33637,19.19935-7.33637,7.69682,0,14.09661,2.44932,19.19935,7.33637,5.09696,4.89285,7.64761,10.98429,7.64761,18.26276,0,7.29005-2.55065,13.37571-7.64761,18.26276-5.10275,4.89285-11.50253,7.33637-19.19935,7.33637-7.70261,0-14.1024-2.44353-19.19935-7.33637Zm40.73946,27.94423V244.75231h-43.70556V71.80613h43.70556Z"/>
      <path class="cls-1" d="M1442.92054,88.81818c13.00368,13.01092,19.51059,31.16946,19.51059,54.47562v101.45852h-43.70412v-95.5292c0-13.52626-3.43513-23.8794-10.30248-31.05944-6.8688-7.18003-16.23325-10.77005-28.09623-10.77005s-21.28243,3.59002-28.25257,10.77005c-6.97592,7.18003-10.45737,17.53318-10.45737,31.05944v95.5292h-43.70556v-95.5292c0-13.52626-3.43513-23.8794-10.30248-31.05944-6.86736-7.18003-16.23325-10.77005-28.09623-10.77005-12.07288,0-21.59366,3.59002-28.5638,10.77005-6.97592,7.18003-10.45882,17.53318-10.45882,31.05944v95.5292h-43.70556V71.80613h43.70556v20.91475c5.61953-7.28426,12.84879-13.00513,21.69644-17.16839,8.84331-4.16326,18.57544-6.24779,29.18916-6.24779,13.52626,0,25.59914,2.86622,36.21285,8.58709,10.61371,5.72666,18.83311,13.89105,24.66255,24.50476,5.61953-9.98835,13.78393-17.99641,24.50621-24.03574,10.71649-6.03354,22.32035-9.05611,34.80724-9.05611,21.22887,0,38.34515,6.50835,51.35462,19.51348Z"/>
      <path class="cls-1" d="M1770.08256,88.81818c13.00368,13.01092,19.51059,31.16946,19.51059,54.47562v101.45852h-43.70412v-95.5292c0-13.52626-3.43513-23.8794-10.30248-31.05944-6.8688-7.18003-16.23325-10.77005-28.09623-10.77005s-21.28243,3.59002-28.25257,10.77005c-6.97592,7.18003-10.45737,17.53318-10.45737,31.05944v95.5292h-43.70556v-95.5292c0-13.52626-3.43513-23.8794-10.30248-31.05944-6.86736-7.18003-16.23325-10.77005-28.09623-10.77005-12.07288,0-21.59366,3.59002-28.5638,10.77005-6.97592,7.18003-10.45882,17.53318-10.45882,31.05944v95.5292h-43.70556V71.80613h43.70556v20.91475c5.61953-7.28426,12.84879-13.00513,21.69644-17.16839,8.84331-4.16326,18.57544-6.24779,29.18916-6.24779,13.52626,0,25.59914,2.86622,36.21285,8.58709,10.61371,5.72666,18.83311,13.89105,24.66255,24.50476,5.61953-9.98835,13.78393-17.99641,24.50621-24.03574,10.71649-6.03354,22.32035-9.05611,34.80724-9.05611,21.22887,0,38.34515,6.50835,51.35462,19.51348Z"/>
      <path class="cls-1" d="M1830.32971,111.13998c6.97013-13.52626,16.4388-23.93152,28.40891-31.22157,11.96431-7.27847,25.33568-10.92639,40.11555-10.92639,12.9009,0,24.19353,2.60566,33.87065,7.80539,9.67857,5.20552,17.42895,11.7602,23.25839,19.66982v-24.6611h44.0168V244.75231h-44.0168v-25.28646c-5.61953,8.11807-13.37571,14.82909-23.25839,20.13305-9.88702,5.30975-21.28098,7.96173-34.18333,7.96173-14.56997,0-27.83856-3.74636-39.80287-11.23907-11.9701-7.49271-21.43877-18.04852-28.40891-31.6848-6.97448-13.63048-10.45737-29.29338-10.45737-46.9829,0-17.48107,3.4829-32.98184,10.45737-46.51388Zm119.4086,19.82037c-4.16471-7.59115-9.78424-13.42203-16.85716-17.48107-7.07726-4.05904-14.67275-6.08566-22.78937-6.08566s-15.60934,1.9803-22.47669,5.92932c-6.86736,3.95481-12.43912,9.73358-16.70227,17.32473-4.26749,7.60273-6.39978,16.60093-6.39978,27.00619,0,10.41105,2.1323,19.51348,6.39978,27.31308,4.26315,7.80539,9.88268,13.79261,16.8586,17.95588,6.97013,4.16326,14.40929,6.242,22.32035,6.242,8.11662,0,15.71212-2.03241,22.78937-6.09145,7.07291-4.05325,12.69245-9.87834,16.85716-17.48107,4.16181-7.59115,6.24489-16.69937,6.24489-27.31308s-2.08308-19.71614-6.24489-27.31887Z"/>
    </g>
    <g>
      <path class="cls-1" d="M697.96237,383.51806c9.67712-16.95994,22.89215-30.17352,39.64653-39.64653,16.75148-9.46722,35.53538-14.20373,56.34879-14.20373,24.34987,0,45.68152,6.242,63.99785,18.73178,18.31054,12.484,31.1101,29.7624,38.39726,51.81784h-50.26024c-4.99562-10.39947-12.01932-18.20486-21.07253-23.41039-9.05321-5.19973-19.51203-7.80539-31.37501-7.80539-12.69679,0-23.98797,2.96466-33.87065,8.89977-9.88702,5.92932-17.58964,14.30796-23.10205,25.13012-5.51676,10.82216-8.27296,23.5204-8.27296,38.08313,0,14.36007,2.75621,27.00619,8.27296,37.93258,5.51241,10.92639,13.21503,19.35135,23.10205,25.28646,9.88268,5.92932,21.17386,8.89398,33.87065,8.89398,11.86298,0,22.3218-2.65198,31.37501-7.96173,9.05321-5.30396,16.07691-13.15568,21.07253-23.56673h50.26024c-7.28716,22.26969-20.03316,39.60021-38.24237,51.97997-18.21355,12.37977-39.59731,18.56965-64.15274,18.56965-20.81341,0-39.59731-4.73072-56.34879-14.20373-16.75438-9.46722-29.96941-22.62869-39.64653-39.49019-9.67712-16.85571-14.51641-36.0044-14.51641-57.44027,0-21.43009,4.83929-40.63089,14.51641-57.59661Z"/>
      <path class="cls-1" d="M965.65461,542.10417c-13.3207-7.3827-23.77952-17.84007-31.37357-31.37212-7.59983-13.52626-11.39541-29.13704-11.39541-46.82656s3.9027-33.29451,11.70664-46.82656c7.80539-13.52626,18.46832-23.98363,31.99892-31.37791,13.52626-7.3827,28.61302-11.08273,45.26606-11.08273,16.6487,0,31.73546,3.70003,45.26606,11.08273,13.52626,7.39428,24.19498,17.85165,31.99892,31.37791,7.80394,13.53205,11.70664,29.13704,11.70664,46.82656s-4.00982,33.3003-12.01932,46.82656c-8.01384,13.53205-18.83746,23.98942-32.46649,31.37212-13.63338,7.39428-28.87648,11.08273-45.73363,11.08273-16.65305,0-31.63847-3.68845-44.95483-11.08273Zm67.27518-32.77917c6.97013-3.84479,12.53611-9.62356,16.70227-17.32473,4.16037-7.69538,6.24345-17.06416,6.24345-28.09478,0-16.4388-4.3225-29.08493-12.95591-37.93258-8.6392-8.84186-19.19935-13.26569-31.68624-13.26569s-22.94571,4.42383-31.37501,13.26569c-8.42785,8.84766-12.64323,21.49378-12.64323,37.93258,0,16.44459,4.10825,29.08493,12.332,37.92679,8.2194,8.85345,18.574,13.27148,31.06233,13.27148,7.90672,0,15.34443-1.9224,22.32035-5.77877Z"/>
      <path class="cls-1" d="M1132.19811,416.76625c6.97013-13.52626,16.49237-23.93152,28.56525-31.22157,12.06709-7.27847,25.49057-10.92639,40.27044-10.92639,11.23907,0,21.95556,2.44932,32.15526,7.33637,10.19391,4.89285,18.31054,11.39541,24.34987,19.51348v-82.10138h44.32947v231.01181h-44.32947v-25.59914c-5.41398,8.53498-13.00947,15.40233-22.78937,20.60207-9.78424,5.19973-21.12609,7.80539-34.02699,7.80539-14.57142,0-27.89212-3.74636-39.95921-11.23907-12.07288-7.49271-21.59511-18.04852-28.56525-31.6848-6.97448-13.63048-10.45737-29.29338-10.45737-46.9829,0-17.48107,3.4829-32.98184,10.45737-46.51388Zm119.4086,19.82037c-4.16471-7.59115-9.78424-13.42203-16.85716-17.48107-7.07726-4.05904-14.67275-6.08566-22.78937-6.08566s-15.60934,1.9803-22.47669,5.92932c-6.86736,3.95481-12.43912,9.73358-16.70227,17.32473-4.26749,7.60273-6.39978,16.60093-6.39978,27.00619,0,10.41105,2.1323,19.51348,6.39978,27.31308,4.26315,7.80539,9.88268,13.79261,16.8586,17.95588,6.97013,4.16326,14.40929,6.242,22.32035,6.242,8.11662,0,15.71212-2.03241,22.78937-6.09145,7.07291-4.05325,12.69245-9.87834,16.85716-17.48107,4.16181-7.59115,6.24489-16.69937,6.24489-27.31308s-2.08308-19.71614-6.24489-27.31887Z"/>
      <path class="cls-1" d="M1504.15863,477.01484h-126.4323c1.03792,12.48979,5.40963,22.27548,13.1108,29.3455,7.69827,7.07581,17.16984,10.61371,28.40891,10.61371,16.23325,0,27.78355-6.97158,34.65235-20.91475h47.13924c-4.99562,16.65305-14.56997,30.33564-28.72158,41.05358-14.15451,10.71794-31.5299,16.07401-52.13342,16.07401-16.65305,0-31.58347-3.68845-44.79849-11.08273-13.21792-7.3827-23.5204-17.84007-30.90599-31.37212-7.38993-13.52626-11.08128-29.13704-11.08128-46.82656,0-17.89797,3.63779-33.60719,10.92639-47.13924,7.28137-13.52626,17.48107-23.93152,30.59332-31.22157,13.1108-7.27847,28.19901-10.92639,45.26606-10.92639,16.4388,0,31.16367,3.54369,44.17313,10.6195,13.00513,7.07581,23.10205,17.11628,30.28208,30.1214,7.18003,13.01092,10.77005,27.94423,10.77005,44.79994,0,6.242-.4198,11.86443-1.24927,16.85571Zm-44.0168-29.3455c-.2099-11.23907-4.26894-20.23727-12.17566-27.0004-7.91107-6.76313-17.58964-10.14469-29.03282-10.14469-10.82361,0-19.93039,3.27734-27.31598,9.83201-7.38993,6.55468-11.91654,15.6629-13.57982,27.31308h82.10427Z"/>
      <path class="cls-1" d="M1565.34237,545.53785c-11.23762-5.09551-20.13594-12.01498-26.69062-20.75841-6.55612-8.74343-10.14614-18.4191-10.77005-29.03282h44.0168c.82947,6.66469,4.10681,12.17711,9.83346,16.54303,5.72231,4.37171,12.84879,6.56047,21.38521,6.56047,8.32073,0,14.82764-1.66762,19.51059-4.99707,4.68295-3.32366,7.02369-7.59694,7.02369-12.79667,0-5.62243-2.86333-9.83781-8.58419-12.64612-5.72666-2.80832-14.82909-5.87721-27.31598-9.20666-12.90669-3.12679-23.46684-6.34622-31.68624-9.68147-8.22374-3.32366-15.29666-8.42496-21.22887-15.29232-5.93077-6.87315-8.89687-16.12613-8.89687-27.78789,0-9.57145,2.75621-18.30909,8.27296-26.2245,5.51241-7.90383,13.42348-14.14583,23.72596-18.72599,10.30103-4.58017,22.42313-6.87315,36.36919-6.87315,20.60351,0,37.04232,5.15341,49.32365,15.45444,12.27844,10.30103,19.04301,24.19787,20.29228,41.67894h-41.83239c-.62391-6.86736-3.48724-12.33345-8.58419-16.39248-5.10275-4.05904-11.91654-6.08566-20.44862-6.08566-7.91107,0-13.99962,1.45917-18.26276,4.37171-4.26749,2.91255-6.39978,6.97158-6.39978,12.17132,0,5.83088,2.91255,10.25471,8.74198,13.27148,5.82364,3.01677,14.87686,6.08566,27.15964,9.20666,12.48689,3.121,22.78937,6.35201,30.90599,9.67568,8.11662,3.33524,15.14032,8.48286,21.07108,15.45444,5.93221,6.97737,8.99965,16.18403,9.20955,27.63155,0,9.98835-2.76055,18.94024-8.27296,26.84406-5.51676,7.91541-13.42348,14.10529-23.72451,18.57544-10.30248,4.47594-22.3218,6.71102-36.05796,6.71102-14.15451,0-26.84696-2.54775-38.08603-7.64905Z"/>
    </g>
  </g>
  <path class="cls-1" d="M738.00411,1.02349H368.13238c-6.97128,0-13.34408,3.93882-16.46225,10.17432l-54.56861,109.13722c-1.03917,2.0785-3.16344,3.39144-5.48742,3.39144H147.26702c-6.97128,0-13.34408,3.93882-16.46225,10.17432L1.96664,391.57705c-6.11851,12.23768,2.78066,26.63657,16.46225,26.63657h125.94164c4.56075,0,7.52714,4.79958,5.48742,8.87886l-49.72892,99.45785c-6.11851,12.23768,2.78066,26.63657,16.46225,26.63657H480.35581c6.97128,0,13.34475-3.93882,16.46225-10.17432l55.21634-110.43268c6.11851-12.23768-2.77999-26.63657-16.46225-26.63657h-113.67134c-2.32398,0-4.44825-1.31294-5.48742-3.39144l-41.89822-83.79611c-2.26074-4.52181-8.7141-4.52181-10.97483,0l-41.89822,83.79611c-1.03917,2.0785-3.16344,3.39144-5.48742,3.39144h-127.38955c-4.56075,0-7.52714-4.79958-5.48742-8.87886l122.70298-245.40596c1.03917-2.0785,3.16344-3.39144,5.48742-3.39144h115.11925c2.32398,0,4.44825,1.31294,5.48742,3.39144l41.89822,83.79611c2.26074,4.52181,8.7141,4.52181,10.97483,0l41.89822-83.79611c1.03917-2.0785,3.16344-3.39144,5.48742-3.39144h150.45428c6.97194,0,13.34475-3.93882,16.46292-10.17432l55.21634-110.43268c6.11851-12.23768-2.78066-26.63657-16.46292-26.63657Z"/>
</svg>