<svg width="20" height="17" viewBox="0 0 20 17" fill="none" xmlns="http://www.w3.org/2000/svg">
<path d="M13.3342 12.4921C13.335 14.0122 14.3282 15.3564 15.7369 15.8126C16.4424 16.0418 17.1711 16.1502 17.9102 16.1824C18.4375 16.2051 18.9649 16.1682 19.4523 15.9295C19.8358 15.7419 20.0164 15.431 19.9988 15.0172C19.9813 14.6003 19.7919 14.2893 19.386 14.1229C19.2454 14.0656 19.1023 14.0185 18.9521 13.9933C18.5047 13.9148 18.0556 13.8489 17.6106 13.7625C16.8763 13.6188 16.5678 13.2364 16.5583 12.507C16.5495 11.8616 16.7277 11.2523 16.9298 10.6501C17.2997 9.54692 17.7983 8.49637 18.2761 7.43639C18.7372 6.41332 19.2214 5.3981 19.5466 4.32006C19.7264 3.72805 19.8119 3.13446 19.6489 2.52282C19.4004 1.59396 18.8339 0.971324 17.8567 0.792306C16.9626 0.628991 16.0717 0.610147 15.263 1.13464C14.9938 1.30816 14.7357 1.26655 14.5024 1.06397C14.3242 0.910081 14.154 0.746766 13.9798 0.588948C13.1544 -0.159317 12.0638 -0.19622 11.1785 0.487661C10.8213 0.763255 10.5201 1.10559 10.1318 1.34506C9.78498 1.55941 9.43501 1.61987 9.05068 1.41887C8.68473 1.22729 8.306 1.05848 7.92806 0.889667C7.54533 0.720071 7.17459 0.509646 6.74392 0.474313C5.38079 0.360464 3.95454 1.15584 3.35368 2.36578C3.08681 2.90127 2.86868 3.45716 2.66253 4.01699C1.70691 6.6049 0.930261 9.24856 0.126448 11.8828C-0.233909 13.0621 0.191169 14.2218 1.20752 14.8586C2.00015 15.3548 2.86788 15.4781 3.76678 15.2127C4.49468 14.9976 4.89339 14.4212 5.17225 13.775C6.09831 11.6292 6.93169 9.44721 7.8146 7.28407C8.0575 6.68891 8.29241 6.0914 8.5505 5.50252C8.81098 4.90815 9.55806 4.70558 10.0015 5.09973C10.2724 5.34078 10.3435 5.66113 10.3171 6.00346C10.2876 6.36935 10.1437 6.70697 10.0079 7.04302C9.43341 8.46967 8.84853 9.8924 8.27164 11.3175C8.15498 11.6056 8.02874 11.8914 7.9776 12.2016C7.88971 12.7331 8.10305 13.2042 8.5457 13.3911C8.99715 13.5827 9.46537 13.6141 9.9328 13.4476C10.4769 13.2537 10.8021 12.8352 11.053 12.3515C11.9136 10.6901 12.7685 9.02479 13.6283 7.36337C14.0254 6.59548 14.4305 5.83151 14.8364 5.06911C14.9874 4.78645 15.164 4.51871 15.446 4.34283C15.7001 4.18501 15.9742 4.17324 16.2355 4.31692C16.4895 4.45668 16.5071 4.71265 16.4959 4.96547C16.4903 5.1013 16.4512 5.234 16.3985 5.36041C16.2866 5.62266 16.1827 5.88961 16.0589 6.14715C15.343 7.6264 14.6166 9.10016 13.9079 10.5826C13.6091 11.2083 13.2975 11.8373 13.335 12.4952L13.3342 12.4921Z" fill="#0077FF"/>
</svg>
