<svg width="548" height="493" viewBox="0 0 548 493" fill="none" xmlns="http://www.w3.org/2000/svg">
<path d="M422.688 413.851C384.51 365.395 325.251 334.275 258.702 334.275C192.152 334.275 132.893 365.395 94.7158 413.851H422.688Z" stroke="#0077FF" stroke-miterlimit="10"/>
<path d="M113.368 413.851V393.184" stroke="#0077FF" stroke-miterlimit="10"/>
<path d="M139.789 413.851V371.441" stroke="#0077FF" stroke-miterlimit="10"/>
<path d="M166.211 413.851V355.83" stroke="#0077FF" stroke-miterlimit="10"/>
<path d="M192.649 413.851V344.95" stroke="#0077FF" stroke-miterlimit="10"/>
<path d="M219.07 413.851V338.032" stroke="#0077FF" stroke-miterlimit="10"/>
<path d="M245.491 413.851V334.702" stroke="#0077FF" stroke-miterlimit="10"/>
<path d="M271.929 413.851V334.702" stroke="#0077FF" stroke-miterlimit="10"/>
<path d="M298.351 413.851V338.032" stroke="#0077FF" stroke-miterlimit="10"/>
<path d="M324.772 413.851V344.95" stroke="#0077FF" stroke-miterlimit="10"/>
<path d="M351.21 413.851V355.83" stroke="#0077FF" stroke-miterlimit="10"/>
<path d="M377.631 413.851V371.441" stroke="#0077FF" stroke-miterlimit="10"/>
<path d="M404.052 413.851V393.184" stroke="#0077FF" stroke-miterlimit="10"/>
<path d="M91.7726 413.851H463.055" stroke="#0077FF" stroke-miterlimit="10"/>
<path d="M51.6103 188.445H40.1622V191.809H51.6103V188.445Z" stroke="#0077FF" stroke-miterlimit="10"/>
<path d="M42.0104 179.392V183.184H49.7622V179.392" stroke="#0077FF" stroke-miterlimit="10"/>
<path d="M85.2357 294.017H6.53687V449.617H85.2357V294.017Z" stroke="#0077FF" stroke-miterlimit="10"/>
<path d="M6.53687 303.923H85.2357" stroke="#0077FF" stroke-miterlimit="10"/>
<path d="M6.53687 360.578H85.2357" stroke="#0077FF" stroke-miterlimit="10"/>
<path d="M6.53687 413.851H85.2357" stroke="#0077FF" stroke-miterlimit="10"/>
<path d="M6.53687 386.369H85.2357" stroke="#0077FF" stroke-miterlimit="10"/>
<path d="M45.8948 392.962V379.776" stroke="#0077FF" stroke-miterlimit="10"/>
<path d="M24.5389 312.771C21.1849 312.771 18.4812 317.16 18.4812 320.491V351.372H30.6137V320.491C30.6137 317.143 27.8929 312.771 24.556 312.771H24.5389Z" stroke="#0077FF" stroke-miterlimit="10"/>
<path d="M45.8949 312.771C42.5409 312.771 39.8372 317.16 39.8372 320.491V351.372H51.9697V320.491C51.9697 317.143 49.2488 312.771 45.912 312.771H45.8949Z" stroke="#0077FF" stroke-miterlimit="10"/>
<path d="M67.2337 312.771C63.8797 312.771 61.176 317.16 61.176 320.491V351.372H73.3085V320.491C73.3085 317.143 70.5877 312.771 67.2508 312.771H67.2337Z" stroke="#0077FF" stroke-miterlimit="10"/>
<path d="M24.5389 366.231C21.1849 366.231 18.4812 370.621 18.4812 373.952V404.833H30.6137V373.952C30.6137 370.604 27.8929 366.231 24.556 366.231H24.5389Z" stroke="#0077FF" stroke-miterlimit="10"/>
<path d="M45.8949 366.231C42.5409 366.231 39.8372 370.621 39.8372 373.952V404.833H51.9697V373.952C51.9697 370.604 49.2488 366.231 45.912 366.231H45.8949Z" stroke="#0077FF" stroke-miterlimit="10"/>
<path d="M51.9526 439.949V426.968C51.9526 423.621 49.2317 419.248 45.8949 419.248C42.558 419.248 39.8372 423.638 39.8372 426.968V439.949" stroke="#0077FF" stroke-miterlimit="10"/>
<path d="M67.2337 366.231C63.8797 366.231 61.176 370.621 61.176 373.952V404.833H73.3085V373.952C73.3085 370.604 70.5877 366.231 67.2508 366.231H67.2337Z" stroke="#0077FF" stroke-miterlimit="10"/>
<path d="M6.53685 297.023H0" stroke="#0077FF" stroke-miterlimit="10"/>
<path d="M91.7726 297.023H85.2357" stroke="#0077FF" stroke-miterlimit="10"/>
<path d="M30.6136 254.869V294.017H61.1589V254.869" stroke="#0077FF" stroke-miterlimit="10"/>
<path d="M19.3025 294.017H30.6136L30.6136 257.824H19.3025L19.3025 294.017Z" stroke="#0077FF" stroke-miterlimit="10"/>
<path d="M61.1588 294.017H72.47V257.824H61.1588V294.017Z" stroke="#0077FF" stroke-miterlimit="10"/>
<path d="M9.17212 294.017V280.028" stroke="#0077FF" stroke-miterlimit="10"/>
<path d="M82.6005 294.017V280.028" stroke="#0077FF" stroke-miterlimit="10"/>
<path d="M63.4006 225.987H29.2618V236.44H63.4006V225.987Z" stroke="#0077FF" stroke-miterlimit="10"/>
<path d="M54.6905 225.987V236.44L61.1589 254.852V257.807H70.8957C70.8957 249.147 62.5107 236.44 62.5107 236.44H29.2618C29.2618 236.44 20.8768 249.147 20.8768 257.807H30.6137V254.852L37.0821 236.44V225.987" stroke="#0077FF" stroke-miterlimit="10"/>
<path d="M30.6136 254.869H61.1589" stroke="#0077FF" stroke-miterlimit="10"/>
<path d="M52.5514 213.775H39.2211" stroke="#0077FF" stroke-miterlimit="10"/>
<path d="M52.5514 219.872H39.2211" stroke="#0077FF" stroke-miterlimit="10"/>
<path d="M40.1622 191.809L33.3174 204.602V225.987H58.4552V204.602L51.6103 191.809H40.1622Z" stroke="#0077FF" stroke-miterlimit="10"/>
<path d="M47.5205 191.809L52.5514 204.602V225.987H39.2211V204.602L44.252 191.809" stroke="#0077FF" stroke-miterlimit="10"/>
<path d="M58.4552 204.603H33.3174" stroke="#0077FF" stroke-miterlimit="10"/>
<path d="M50.7547 183.184H41.0178C39.5633 183.184 38.3826 184.363 38.3826 185.814C38.3826 187.266 39.5633 188.445 41.0178 188.445H50.7547C52.2092 188.445 53.3899 187.266 53.3899 185.814C53.3899 184.363 52.2092 183.184 50.7547 183.184Z" stroke="#0077FF" stroke-miterlimit="10"/>
<path d="M55.6316 170.237C55.6316 175.6 51.268 179.956 45.8777 179.956C40.4874 179.956 36.1238 175.6 36.1238 170.237C36.1238 166.616 38.1088 163.439 41.0521 161.783C41.1034 161.766 41.1719 161.714 41.2061 161.697C43.8414 160.126 45.4841 157.53 45.8606 154.694C46.2542 157.513 47.8969 160.126 50.5151 161.697C50.5664 161.714 50.6349 161.766 50.6691 161.783C53.6124 163.439 55.5974 166.616 55.5974 170.237H55.6316Z" stroke="#0077FF" stroke-miterlimit="10"/>
<path d="M45.8777 154.694V134.523" stroke="#0077FF" stroke-miterlimit="10"/>
<path d="M41.1034 141.97H50.6691" stroke="#0077FF" stroke-miterlimit="10"/>
<path d="M45.8948 285.904C50.573 285.904 54.3654 282.119 54.3654 277.449C54.3654 272.78 50.573 268.995 45.8948 268.995C41.2167 268.995 37.4243 272.78 37.4243 277.449C37.4243 282.119 41.2167 285.904 45.8948 285.904Z" stroke="#0077FF" stroke-miterlimit="10"/>
<path d="M30.6136 266.005L45.8948 254.869" stroke="#0077FF" stroke-miterlimit="10"/>
<path d="M61.1588 266.005L45.8948 254.869" stroke="#0077FF" stroke-miterlimit="10"/>
<path d="M85.2357 449.616H196.499L166.844 404.833H85.2357V449.616Z" fill="#FAFAFA" stroke="#0077FF" stroke-miterlimit="10"/>
<path d="M32.65 449.617L19.4908 431.768L6.34863 449.617" stroke="#0077FF" stroke-miterlimit="10"/>
<path d="M58.9343 449.617L45.7922 431.768L32.65 449.617" stroke="#0077FF" stroke-miterlimit="10"/>
<path d="M85.2357 449.617L72.0936 431.768L58.9343 449.617" stroke="#0077FF" stroke-miterlimit="10"/>
<path d="M543.876 421.81H481.399V492.146H543.876V421.81Z" stroke="#0077FF" stroke-miterlimit="10"/>
<path d="M478.644 416.157L481.399 421.81H543.876L546.631 416.157H478.644Z" stroke="#0077FF" stroke-miterlimit="10"/>
<path d="M527.055 344.557H498.238V416.157H527.055V344.557Z" stroke="#0077FF" stroke-miterlimit="10"/>
<path d="M522.109 358.87H503.166V363.687H522.109V358.87Z" stroke="#0077FF" stroke-miterlimit="10"/>
<path d="M356.121 464.135H334.954V492.146H356.121V464.135Z" stroke="#0077FF" stroke-miterlimit="10"/>
<path d="M272.306 464.135H209.658V492.146H272.306V464.135Z" stroke="#0077FF" stroke-miterlimit="10"/>
<path d="M240.991 464.135V432.878" stroke="#0077FF" stroke-miterlimit="10"/>
<path d="M229.851 464.135V435.355" stroke="#0077FF" stroke-miterlimit="10"/>
<path d="M218.728 464.135V442.016" stroke="#0077FF" stroke-miterlimit="10"/>
<path d="M263.236 464.135V442.016" stroke="#0077FF" stroke-miterlimit="10"/>
<path d="M252.114 464.135V435.355" stroke="#0077FF" stroke-miterlimit="10"/>
<path d="M272.306 464.135C272.306 446.867 258.274 432.878 240.991 432.878C223.707 432.878 209.675 446.884 209.675 464.135" stroke="#0077FF" stroke-miterlimit="10"/>
<path d="M334.954 464.135H272.306V492.146H334.954V464.135Z" stroke="#0077FF" stroke-miterlimit="10"/>
<path d="M303.621 464.135V432.878" stroke="#0077FF" stroke-miterlimit="10"/>
<path d="M292.498 464.135V435.355" stroke="#0077FF" stroke-miterlimit="10"/>
<path d="M281.358 464.135V442.016" stroke="#0077FF" stroke-miterlimit="10"/>
<path d="M325.884 464.135V442.016" stroke="#0077FF" stroke-miterlimit="10"/>
<path d="M314.761 464.135V435.355" stroke="#0077FF" stroke-miterlimit="10"/>
<path d="M334.954 464.135C334.954 446.867 320.922 432.878 303.638 432.878C286.355 432.878 272.323 446.884 272.323 464.135" stroke="#0077FF" stroke-miterlimit="10"/>
<path d="M418.769 464.135H356.121V492.146H418.769V464.135Z" stroke="#0077FF" stroke-miterlimit="10"/>
<path d="M387.437 464.135V432.878" stroke="#0077FF" stroke-miterlimit="10"/>
<path d="M376.314 464.135V435.355" stroke="#0077FF" stroke-miterlimit="10"/>
<path d="M365.174 464.135V442.016" stroke="#0077FF" stroke-miterlimit="10"/>
<path d="M409.699 464.135V442.016" stroke="#0077FF" stroke-miterlimit="10"/>
<path d="M398.56 464.135V435.355" stroke="#0077FF" stroke-miterlimit="10"/>
<path d="M418.769 464.135C418.769 446.867 404.737 432.878 387.454 432.878C370.17 432.878 356.138 446.884 356.138 464.135" stroke="#0077FF" stroke-miterlimit="10"/>
<path d="M481.417 464.135H418.769V492.146H481.417V464.135Z" stroke="#0077FF" stroke-miterlimit="10"/>
<path d="M450.084 464.135V432.878" stroke="#0077FF" stroke-miterlimit="10"/>
<path d="M438.944 464.135V435.355" stroke="#0077FF" stroke-miterlimit="10"/>
<path d="M427.821 464.135V442.016" stroke="#0077FF" stroke-miterlimit="10"/>
<path d="M472.347 464.135V442.016" stroke="#0077FF" stroke-miterlimit="10"/>
<path d="M461.207 464.135V435.355" stroke="#0077FF" stroke-miterlimit="10"/>
<path d="M481.4 464.135C481.4 446.867 467.368 432.878 450.084 432.878C432.801 432.878 418.769 446.884 418.769 464.135" stroke="#0077FF" stroke-miterlimit="10"/>
<path d="M202.676 241.649H126.767V304.965H202.676V241.649Z" stroke="#0077FF" stroke-miterlimit="10"/>
<path d="M202.676 251.163H122.215" stroke="#0077FF" stroke-miterlimit="10"/>
<path d="M129.984 241.649V236.03" stroke="#0077FF" stroke-miterlimit="10"/>
<path d="M137.034 241.649V251.163" stroke="#0077FF" stroke-miterlimit="10"/>
<path d="M145.368 241.649V251.163" stroke="#0077FF" stroke-miterlimit="10"/>
<path d="M153.719 241.649V251.163" stroke="#0077FF" stroke-miterlimit="10"/>
<path d="M162.052 241.649V251.163" stroke="#0077FF" stroke-miterlimit="10"/>
<path d="M170.403 241.649V251.163" stroke="#0077FF" stroke-miterlimit="10"/>
<path d="M178.754 241.649V251.163" stroke="#0077FF" stroke-miterlimit="10"/>
<path d="M187.087 241.649V251.163" stroke="#0077FF" stroke-miterlimit="10"/>
<path d="M195.438 241.649V251.163" stroke="#0077FF" stroke-miterlimit="10"/>
<path d="M149.868 259.481H139.413V277.552H149.868V259.481Z" stroke="#0077FF" stroke-miterlimit="10"/>
<path d="M149.868 286.894H139.413V304.965H149.868V286.894Z" stroke="#0077FF" stroke-miterlimit="10"/>
<path d="M172.097 259.481H161.642V277.552H172.097V259.481Z" stroke="#0077FF" stroke-miterlimit="10"/>
<path d="M172.097 286.894H161.642V304.965H172.097V286.894Z" stroke="#0077FF" stroke-miterlimit="10"/>
<path d="M194.326 259.481H183.87V277.552H194.326V259.481Z" stroke="#0077FF" stroke-miterlimit="10"/>
<path d="M194.326 286.894H183.87V304.965H194.326V286.894Z" stroke="#0077FF" stroke-miterlimit="10"/>
<path d="M255.912 304.965H202.677V283.444L219.84 278.798H255.912" stroke="#0077FF" stroke-miterlimit="10"/>
<path d="M242.377 216.627V304.965" stroke="#0077FF" stroke-miterlimit="10"/>
<path d="M219.84 304.965V267.116" stroke="#0077FF" stroke-miterlimit="10"/>
<path d="M202.677 275.639L219.84 270.976H255.912" stroke="#0077FF" stroke-miterlimit="10"/>
<path d="M202.677 241.649V229.744" stroke="#0077FF" stroke-miterlimit="10"/>
<path d="M231.031 229.744H199.785" stroke="#0077FF" stroke-miterlimit="10"/>
<path d="M231.031 270.976V229.744" stroke="#0077FF" stroke-miterlimit="10"/>
<path d="M231.048 221.085H205.158V229.744H231.048V221.085Z" stroke="#0077FF" stroke-miterlimit="10"/>
<path d="M231.031 221.085L242.308 216.627H255.912" stroke="#0077FF" stroke-miterlimit="10"/>
<path d="M231.031 229.745L242.308 225.27H255.912" stroke="#0077FF" stroke-miterlimit="10"/>
<path d="M218.095 221.085C218.266 221.085 224.495 210.803 224.495 210.803H237.568" stroke="#0077FF" stroke-miterlimit="10"/>
<path d="M235.292 219.394L237.568 210.803L244.02 205.269H255.912" stroke="#0077FF" stroke-miterlimit="10"/>
<path d="M209.384 221.085V215.944" stroke="#0077FF" stroke-miterlimit="10"/>
<path d="M245.987 217.481V212.34" stroke="#0077FF" stroke-miterlimit="10"/>
<path d="M223.126 240.112H212.807V253.366H223.126V240.112Z" stroke="#0077FF" stroke-miterlimit="10"/>
<path d="M255.912 253.366H250.762V240.112H255.912" stroke="#0077FF" stroke-miterlimit="10"/>
<path d="M308.686 304.965H384.596V241.649H308.686V304.965Z" stroke="#0077FF" stroke-miterlimit="10"/>
<path d="M308.686 251.163H389.148" stroke="#0077FF" stroke-miterlimit="10"/>
<path d="M381.379 241.649V236.03" stroke="#0077FF" stroke-miterlimit="10"/>
<path d="M374.329 241.649V251.163" stroke="#0077FF" stroke-miterlimit="10"/>
<path d="M365.995 241.649V251.163" stroke="#0077FF" stroke-miterlimit="10"/>
<path d="M357.644 241.649V251.163" stroke="#0077FF" stroke-miterlimit="10"/>
<path d="M349.311 241.649V251.163" stroke="#0077FF" stroke-miterlimit="10"/>
<path d="M340.96 241.649V251.163" stroke="#0077FF" stroke-miterlimit="10"/>
<path d="M332.609 241.649V251.163" stroke="#0077FF" stroke-miterlimit="10"/>
<path d="M324.276 241.649V251.163" stroke="#0077FF" stroke-miterlimit="10"/>
<path d="M315.925 241.649V251.163" stroke="#0077FF" stroke-miterlimit="10"/>
<path d="M361.495 277.569H371.95V259.498H361.495V277.569Z" stroke="#0077FF" stroke-miterlimit="10"/>
<path d="M361.495 304.965H371.95V286.894H361.495V304.965Z" stroke="#0077FF" stroke-miterlimit="10"/>
<path d="M339.266 277.569H349.721V259.498H339.266V277.569Z" stroke="#0077FF" stroke-miterlimit="10"/>
<path d="M339.266 304.965H349.721V286.894H339.266V304.965Z" stroke="#0077FF" stroke-miterlimit="10"/>
<path d="M317.037 277.569H327.493V259.498H317.037V277.569Z" stroke="#0077FF" stroke-miterlimit="10"/>
<path d="M317.037 304.965H327.493V286.894H317.037V304.965Z" stroke="#0077FF" stroke-miterlimit="10"/>
<path d="M255.45 304.965H308.686V283.444L291.523 278.798H255.45" stroke="#0077FF" stroke-miterlimit="10"/>
<path d="M268.986 216.627V304.965" stroke="#0077FF" stroke-miterlimit="10"/>
<path d="M291.523 304.965V267.116" stroke="#0077FF" stroke-miterlimit="10"/>
<path d="M308.686 275.639L291.523 270.976H255.45" stroke="#0077FF" stroke-miterlimit="10"/>
<path d="M308.686 241.649V229.744" stroke="#0077FF" stroke-miterlimit="10"/>
<path d="M280.332 229.744H311.578" stroke="#0077FF" stroke-miterlimit="10"/>
<path d="M280.332 270.976V229.744" stroke="#0077FF" stroke-miterlimit="10"/>
<path d="M280.314 229.744H306.205V221.085H280.314V229.744Z" stroke="#0077FF" stroke-miterlimit="10"/>
<path d="M280.332 221.085L269.055 216.627H255.45" stroke="#0077FF" stroke-miterlimit="10"/>
<path d="M280.332 229.745L269.055 225.27H255.45" stroke="#0077FF" stroke-miterlimit="10"/>
<path d="M293.268 221.085C293.097 221.085 286.868 210.803 286.868 210.803H273.795" stroke="#0077FF" stroke-miterlimit="10"/>
<path d="M276.071 219.394L273.795 210.803L267.343 205.269H255.45" stroke="#0077FF" stroke-miterlimit="10"/>
<path d="M301.978 221.085V215.944" stroke="#0077FF" stroke-miterlimit="10"/>
<path d="M265.375 217.481V212.34" stroke="#0077FF" stroke-miterlimit="10"/>
<path d="M288.237 253.366H298.556V240.112H288.237V253.366Z" stroke="#0077FF" stroke-miterlimit="10"/>
<path d="M255.45 253.366H260.601V240.112H255.45" stroke="#0077FF" stroke-miterlimit="10"/>
<path d="M393.7 218.215H378.88V320.816H393.7V218.215Z" fill="#FAFAFA" stroke="#0077FF" stroke-miterlimit="10"/>
<path d="M393.7 193.415H381.447V218.215H393.7V193.415Z" stroke="#0077FF" stroke-miterlimit="10"/>
<path d="M393.7 160.314H383.278V193.415H393.7V160.314Z" stroke="#0077FF" stroke-miterlimit="10"/>
<path d="M388.48 124.941L383.278 142.072V160.314H393.7V142.072L388.48 124.941Z" stroke="#0077FF" stroke-miterlimit="10"/>
<path d="M449.964 218.215H435.145V320.816H449.964V218.215Z" stroke="#0077FF" stroke-miterlimit="10"/>
<path d="M435.162 218.215H447.415V193.415H435.162V218.215Z" stroke="#0077FF" stroke-miterlimit="10"/>
<path d="M435.145 193.415H445.567V160.314H435.145V193.415Z" stroke="#0077FF" stroke-miterlimit="10"/>
<path d="M440.364 124.941L445.567 142.072V160.314H435.145V142.072L440.364 124.941Z" stroke="#0077FF" stroke-miterlimit="10"/>
<path d="M426.178 273.794V320.833H402.666V273.794C402.666 265.818 407.509 258.986 414.422 256.048C421.336 258.968 426.178 265.818 426.178 273.794Z" stroke="#0077FF" stroke-miterlimit="10"/>
<path d="M393.7 248.618H435.145" stroke="#0077FF" stroke-miterlimit="10"/>
<path d="M414.422 253.725V234.903" stroke="#0077FF" stroke-miterlimit="10"/>
<path d="M404.052 253.725V234.903" stroke="#0077FF" stroke-miterlimit="10"/>
<path d="M424.792 253.725V234.903" stroke="#0077FF" stroke-miterlimit="10"/>
<path d="M393.7 230.411H435.145" stroke="#0077FF" stroke-miterlimit="10"/>
<path d="M400.596 166.241C396.78 166.241 393.682 171.228 393.682 175.037V230.411H407.509V175.037C407.509 171.228 404.412 166.241 400.596 166.241V166.241Z" stroke="#0077FF" stroke-miterlimit="10"/>
<path d="M414.422 166.241C410.606 166.241 407.509 171.228 407.509 175.037V230.411H421.336V175.037C421.336 171.228 418.238 166.241 414.422 166.241V166.241Z" stroke="#0077FF" stroke-miterlimit="10"/>
<path d="M428.249 166.241C424.433 166.241 421.336 171.228 421.336 175.037V230.411H435.162V175.037C435.162 171.228 432.065 166.241 428.249 166.241V166.241Z" stroke="#0077FF" stroke-miterlimit="10"/>
<path d="M393.7 193.415H435.145" stroke="#0077FF" stroke-miterlimit="10"/>
<path d="M391.167 133.925V34.126H404.206V160.314" stroke="#0077FF" stroke-miterlimit="10"/>
<path d="M445.567 160.314H383.278" stroke="#0077FF" stroke-miterlimit="10"/>
<path d="M414.422 130.782C420.065 130.782 424.638 126.217 424.638 120.585C424.638 114.954 420.065 110.389 414.422 110.389C408.78 110.389 404.206 114.954 404.206 120.585C404.206 126.217 408.78 130.782 414.422 130.782Z" fill="#FAFAFA" stroke="#0077FF" stroke-miterlimit="10"/>
<path d="M424.656 160.314V34.126H437.678V133.925" stroke="#0077FF" stroke-miterlimit="10"/>
<path d="M398.388 155.651H430.457" stroke="#0077FF" stroke-miterlimit="10"/>
<path d="M424.656 40.2065H404.206V47.4143H424.656V40.2065Z" stroke="#0077FF" stroke-miterlimit="10"/>
<path d="M404.206 34.126L414.422 20.0862L424.656 34.126" stroke="#0077FF" stroke-miterlimit="10"/>
<path d="M414.422 20.0862V0" stroke="#0077FF" stroke-miterlimit="10"/>
<path d="M409.665 7.39563H419.18" stroke="#0077FF" stroke-miterlimit="10"/>
<path d="M354.359 302.54L378.88 292.343V320.816H354.359V302.54Z" fill="#FAFAFA" stroke="#0077FF" stroke-miterlimit="10"/>
<path d="M474.486 302.54L449.982 292.343V320.816H474.486V302.54Z" stroke="#0077FF" stroke-miterlimit="10"/>
<path d="M474.486 296.169V320.816H354.359V296.169" stroke="#0077FF" stroke-miterlimit="10"/>
<path d="M295.083 27.5098H295.2L295.217 27.5014C298.418 27.5804 300.472 30.9577 299.03 33.819L299.03 33.8196L284.359 63.0176C283.614 64.4988 282.099 65.434 280.432 65.434H240.457C239.649 65.434 238.912 65.8819 238.549 66.6034L227.413 88.7574L227.411 88.7604C227.004 89.5847 225.813 89.5918 225.394 88.7575L225.394 88.7574L214.257 66.6035C214.257 66.6035 214.257 66.6035 214.257 66.6034C213.895 65.8819 213.157 65.434 212.349 65.434H181.764C180.955 65.434 180.218 65.8819 179.856 66.6035L147.246 131.493L147.693 131.718L147.246 131.494C146.534 132.912 147.573 134.566 149.154 134.566H182.998C183.806 134.566 184.543 134.118 184.906 133.396L196.042 111.243L196.044 111.24C196.451 110.415 197.642 110.408 198.061 111.243L198.061 111.243L209.197 133.396C209.197 133.397 209.197 133.397 209.198 133.397C209.56 134.118 210.297 134.566 211.105 134.566H241.306C244.572 134.566 246.692 137.99 245.233 140.885L245.233 140.886L230.562 170.084C229.818 171.565 228.303 172.5 226.635 172.5H129.981C126.715 172.5 124.595 169.076 126.054 166.181L126.054 166.18L139.264 139.881C139.264 139.881 139.264 139.881 139.264 139.881C139.976 138.462 138.937 136.808 137.356 136.808H103.897C100.632 136.808 98.511 133.384 99.9702 130.489L99.9705 130.488L134.199 62.3663C134.943 60.8851 136.459 59.9499 138.126 59.9499H176.472C177.28 59.9499 178.017 59.502 178.38 58.7804C178.38 58.7804 178.38 58.7804 178.38 58.7804L192.883 29.9262L192.883 29.9262C193.627 28.445 195.142 27.5098 196.81 27.5098H295.083Z" stroke="#0077FF"/>
</svg>
